<svg xmlns="http://www.w3.org/2000/svg" width="102" height="102" viewBox="0 0 102 102"><rect x="1" y="1" width="100" height="100" rx="12" fill="#6b563a"/><rect x="1" y="1" width="100" height="100" rx="12" fill="none" stroke="#4f3f2b" stroke-width="2" opacity="0.7"/><rect x="6" y="5" width="90" height="7" rx="4" fill="#836a48" opacity="0.35"/><circle cx="66.01" cy="43.27" r="1.13" fill="#4f3f2b" opacity="0.4"/><circle cx="15.91" cy="82.18" r="2.19" fill="#4f3f2b" opacity="0.4"/><circle cx="47.92" cy="97.55" r="1.65" fill="#4f3f2b" opacity="0.4"/><circle cx="39.06" cy="71.57" r="1.18" fill="#4f3f2b" opacity="0.4"/><circle cx="34.38" cy="24.85" r="1.71" fill="#4f3f2b" opacity="0.4"/><circle cx="93.94" cy="13.9" r="2.28" fill="#4f3f2b" opacity="0.4"/><circle cx="73.24" cy="88.23" r="2.21" fill="#4f3f2b" opacity="0.4"/><circle cx="71.08" cy="94.68" r="1.8" fill="#4f3f2b" opacity="0.4"/><circle cx="34.84" cy="19.51" r="0.88" fill="#4f3f2b" opacity="0.4"/><circle cx="6.39" cy="62.51" r="2.17" fill="#4f3f2b" opacity="0.4"/><circle cx="59.84" cy="57.66" r="1.23" fill="#4f3f2b" opacity="0.4"/><circle cx="19.4" cy="34.17" r="1.1" fill="#4f3f2b" opacity="0.4"/><circle cx="83.42" cy="62.27" r="2.37" fill="#4f3f2b" opacity="0.4"/><circle cx="70.58" cy="83.83" r="1.52" fill="#4f3f2b" opacity="0.4"/><circle cx="24.81" cy="17.66" r="1.09" fill="#4f3f2b" opacity="0.4"/><circle cx="21.88" cy="4.43" r="1.41" fill="#4f3f2b" opacity="0.4"/><circle cx="85.07" cy="54.31" r="1.35" fill="#4f3f2b" opacity="0.4"/><circle cx="93.23" cy="6.91" r="2.05" fill="#4f3f2b" opacity="0.4"/><circle cx="51.58" cy="97.7" r="1.36" fill="#4f3f2b" opacity="0.4"/><circle cx="52.83" cy="94.14" r="1.82" fill="#4f3f2b" opacity="0.4"/><circle cx="35.48" cy="51.15" r="1.87" fill="#4f3f2b" opacity="0.4"/><circle cx="26.9" cy="28.44" r="1.98" fill="#4f3f2b" opacity="0.4"/><circle cx="57.04" cy="46.43" r="1.81" fill="#4f3f2b" opacity="0.4"/><circle cx="33.98" cy="26.79" r="2.15" fill="#4f3f2b" opacity="0.4"/><circle cx="43.45" cy="50.9" r="1.21" fill="#4f3f2b" opacity="0.4"/><circle cx="65.45" cy="47.47" r="0.86" fill="#4f3f2b" opacity="0.4"/><circle cx="56.99" cy="89.04" r="2.14" fill="#4f3f2b" opacity="0.4"/><circle cx="83.02" cy="90.73" r="2.2" fill="#4f3f2b" opacity="0.4"/><circle cx="7.8" cy="38.78" r="1.44" fill="#4f3f2b" opacity="0.4"/><circle cx="77.26" cy="31.12" r="1.44" fill="#4f3f2b" opacity="0.4"/><circle cx="23.78" cy="7.43" r="1.26" fill="#4f3f2b" opacity="0.4"/><circle cx="10.87" cy="58.83" r="1.68" fill="#4f3f2b" opacity="0.4"/><circle cx="28.36" cy="34.06" r="1.37" fill="#4f3f2b" opacity="0.4"/><circle cx="84.22" cy="17.15" r="1" fill="#4f3f2b" opacity="0.4"/><rect x="10" y="22" width="82" height="6" rx="3" fill="#000000" opacity="0.16"/><rect x="10" y="22" width="82" height="2" rx="1" fill="#836a48" opacity="0.18"/><circle cx="18" cy="30" r="1.7" fill="#836a48" opacity="0.7"/><circle cx="35" cy="30" r="1.7" fill="#836a48" opacity="0.7"/><circle cx="52" cy="30" r="1.7" fill="#836a48" opacity="0.7"/><circle cx="69" cy="30" r="1.7" fill="#836a48" opacity="0.7"/><circle cx="86" cy="30" r="1.7" fill="#836a48" opacity="0.7"/><rect x="10" y="37" width="82" height="6" rx="3" fill="#000000" opacity="0.16"/><rect x="10" y="37" width="82" height="2" rx="1" fill="#836a48" opacity="0.18"/><circle cx="18" cy="45" r="1.7" fill="#836a48" opacity="0.7"/><circle cx="35" cy="45" r="1.7" fill="#836a48" opacity="0.7"/><circle cx="52" cy="45" r="1.7" fill="#836a48" opacity="0.7"/><circle cx="69" cy="45" r="1.7" fill="#836a48" opacity="0.7"/><circle cx="86" cy="45" r="1.7" fill="#836a48" opacity="0.7"/><rect x="10" y="52" width="82" height="6" rx="3" fill="#000000" opacity="0.16"/><rect x="10" y="52" width="82" height="2" rx="1" fill="#836a48" opacity="0.18"/><circle cx="18" cy="60" r="1.7" fill="#836a48" opacity="0.7"/><circle cx="35" cy="60" r="1.7" fill="#836a48" opacity="0.7"/><circle cx="52" cy="60" r="1.7" fill="#836a48" opacity="0.7"/><circle cx="69" cy="60" r="1.7" fill="#836a48" opacity="0.7"/><circle cx="86" cy="60" r="1.7" fill="#836a48" opacity="0.7"/><rect x="10" y="67" width="82" height="6" rx="3" fill="#000000" opacity="0.16"/><rect x="10" y="67" width="82" height="2" rx="1" fill="#836a48" opacity="0.18"/><circle cx="18" cy="75" r="1.7" fill="#836a48" opacity="0.7"/><circle cx="35" cy="75" r="1.7" fill="#836a48" opacity="0.7"/><circle cx="52" cy="75" r="1.7" fill="#836a48" opacity="0.7"/><circle cx="69" cy="75" r="1.7" fill="#836a48" opacity="0.7"/><circle cx="86" cy="75" r="1.7" fill="#836a48" opacity="0.7"/><rect x="10" y="82" width="82" height="6" rx="3" fill="#000000" opacity="0.16"/><rect x="10" y="82" width="82" height="2" rx="1" fill="#836a48" opacity="0.18"/><circle cx="18" cy="90" r="1.7" fill="#836a48" opacity="0.7"/><circle cx="35" cy="90" r="1.7" fill="#836a48" opacity="0.7"/><circle cx="52" cy="90" r="1.7" fill="#836a48" opacity="0.7"/><circle cx="69" cy="90" r="1.7" fill="#836a48" opacity="0.7"/><circle cx="86" cy="90" r="1.7" fill="#836a48" opacity="0.7"/></svg>
